<svg width="694" height="221" viewBox="0 0 694 221" fill="none" xmlns="http://www.w3.org/2000/svg">
<g clip-path="url(#clip0_4_12)">
<path fill-rule="evenodd" clip-rule="evenodd" d="M513.13 55.7039C498.083 55.7039 488.156 65.6993 486.361 84.219L483.506 113.667C483.262 116.193 483.174 118.729 483.323 120.995C484.35 136.585 494.481 144.713 508.205 144.713H540.128C556.117 144.713 566.12 134.851 567.704 116.332L570.338 85.5516C570.521 83.4071 570.59 81.2871 570.458 79.2892C569.483 64.498 559.831 55.7039 545.452 55.7039H513.13ZM57.6805 71.1607C61.1452 71.1607 64.6333 73.5599 64.9576 78.4895C65.4247 85.5516 60.7589 89.6815 56.6359 89.6815C44.7129 89.6815 37.3976 89.6815 25.4751 89.6815C26.0459 83.5076 26.6151 77.3346 27.1861 71.1607C38.8868 71.1607 45.9801 71.1607 57.6805 71.1607ZM8.078 55.7039C5.14574 85.3316 2.23893 115.031 0 144.713C18.0011 144.713 40.6087 144.713 58.6087 144.713C71.534 144.713 86.5549 134.053 85.2359 114.066C84.6384 105.005 80.9647 99.8091 76.2236 96.6112C83.5917 91.1472 86.2276 82.6191 85.7797 75.825C84.9538 63.2996 75.2504 55.7039 64.7323 55.7039C47.3824 55.7039 25.4275 55.7039 8.078 55.7039ZM53.8805 104.472C60.41 104.472 64.5011 109.935 64.8517 115.265C65.5639 126.058 58.1711 129.257 53.916 129.257C41.6825 129.257 34.0561 129.257 21.8219 129.257C22.5656 120.995 23.3087 112.734 24.0525 104.472C35.5309 104.472 42.4017 104.472 53.8805 104.472ZM152.983 71.1607C156.714 71.1607 162.355 73.8293 162.871 81.6865C163.421 90.0797 157.82 96.2113 151.304 96.2113H120.856L123.203 71.1607H152.983ZM104.023 55.7039C101.506 85.3913 98.6071 115.047 95.8363 144.713H116.313L119.468 111.534H142.586L157.846 144.713H180.607L164.551 110.069C176.327 106.13 181.841 96.7042 183.066 86.6091C185.682 65.0745 173.017 55.7039 154.323 55.7039C138.844 55.7039 119.503 55.7039 104.023 55.7039ZM281.251 144.713L257.545 55.7039C250.434 55.7039 236.147 55.7039 229.037 55.7039C214.875 85.3588 200.77 115.042 186.64 144.713H208.49C211.505 138.257 214.759 131.31 218.118 124.179H254.53C256.36 131.198 258.17 138.166 259.853 144.713H281.251ZM225.365 108.857C230.992 97.0123 236.64 85.2564 241.714 74.9334C243.995 83.8855 247.162 95.9913 250.527 108.857H225.365ZM317.857 55.7039C312.461 55.7039 302.459 55.7039 297.063 55.7039C294.113 85.3629 291.375 115.036 288.569 144.713H309.179L315.24 81.4553C327.793 102.547 340.248 123.702 352.936 144.711C357.559 144.711 366.78 144.715 371.403 144.715C374.146 115.045 376.875 85.375 379.607 55.7038H358.996L353.509 114.372C341.249 94.5195 331.984 79.0988 317.857 55.7039ZM448.707 117.664C449.896 106.072 451.086 94.4788 452.276 82.8866C452.385 81.8291 452.412 80.8872 452.35 79.9548C451.981 74.3586 448.572 71.1607 441.51 71.1607C431.847 71.1607 422.183 71.1607 412.519 71.1607C410.731 90.5255 408.943 109.892 407.156 129.257C416.775 129.257 426.393 129.257 436.013 129.257C444.805 129.257 447.957 124.984 448.707 117.664ZM393.348 55.7496C408.991 55.7496 433.849 55.7039 449.494 55.7039C462.551 55.7039 471.804 62.6326 472.744 76.8901C472.875 78.8894 472.832 81.0127 472.632 83.2865C471.644 94.5676 470.656 105.849 469.668 117.131C468.08 135.254 460.16 144.713 442.838 144.713C426.67 144.713 401.29 144.713 385.122 144.713C387.916 115.063 390.554 85.3996 393.348 55.7496ZM547.302 117.264C546.663 124.05 542.784 129.656 534.794 129.656H514.35C507.428 129.656 503.978 125.924 503.609 120.329C503.556 119.53 503.62 118.463 503.69 117.53L506.887 83.1527C507.544 76.0781 511.4 70.7608 518.995 70.7608H539.04C546.901 70.7608 550.22 74.6246 550.589 80.2214C550.651 81.1544 550.615 82.0979 550.516 83.1527L547.302 117.264Z" fill="#231F20"/>
<path fill-rule="evenodd" clip-rule="evenodd" d="M627.304 107.501C610.434 56.2691 564.019 17.6506 518.254 -0.000244141C572.973 1.97269 622.897 22.7073 661.81 55.9561L655.969 91.0003L627.304 107.501Z" fill="#231F20"/>
<path fill-rule="evenodd" clip-rule="evenodd" d="M687.475 81.5438C696.48 93.7124 695.351 107.2 686.245 119.348C643.916 180.253 573.454 220.132 493.662 220.132C448.585 220.132 406.489 207.397 370.753 185.344C394.902 194.481 421.075 199.496 448.425 199.496C513.386 199.496 571.743 171.275 611.932 126.433C617.354 120.38 622.348 113.95 627.304 107.501C639.75 91.2447 651.886 73.8616 661.811 55.9549C671.015 63.8122 679.587 72.3705 687.475 81.5438Z" fill="#A91F0F"/>
</g>
<defs>
<clipPath id="clip0_4_12">
<rect width="693.68" height="220.132" fill="white"/>
</clipPath>
</defs>
</svg>
